# xmcd CD database file
#
# Track frame offsets:
#	150
#	20860
#	36122
#
# Disc length: 757 seconds
#
# Revision: 0
# Processed by: cddbd v1.5PL3 Copyright (c) Steve Scherf et al.
# Submitted via: CDex 1.51
#
DISCID=2002f303
DTITLE=Sowelu - No Limit
DYEAR=2004
DGENRE=Vocal
TTITLE0=No Limit
TTITLE1=Private Night
TTITLE2=No Limit(Less Vocal)
EXTD=YEAR: 2004
EXTT0=
EXTT1=
EXTT2=
PLAYORDER=
